solid OpenSCAD_Model
  facet normal 0 0.104528 -0.994522
    outer loop
      vertex 0 0 0
      vertex 200 2.0313 0.213498
      vertex 200 0 0
    endloop
  endfacet
  facet normal 0 0.104528 -0.994522
    outer loop
      vertex 200 2.0313 0.213498
      vertex 0 0 0
      vertex 0 2.0313 0.213498
    endloop
  endfacet
  facet normal 0 0.309017 -0.951057
    outer loop
      vertex 0 2.0313 0.213498
      vertex 200 3.97382 0.844661
      vertex 200 2.0313 0.213498
    endloop
  endfacet
  facet normal 0 0.309017 -0.951057
    outer loop
      vertex 200 3.97382 0.844661
      vertex 0 2.0313 0.213498
      vertex 0 3.97382 0.844661
    endloop
  endfacet
  facet normal 0 0.5 -0.866026
    outer loop
      vertex 0 3.97382 0.844661
      vertex 200 5.74266 1.8659
      vertex 200 3.97382 0.844661
    endloop
  endfacet
  facet normal 0 0.5 -0.866026
    outer loop
      vertex 200 5.74266 1.8659
      vertex 0 3.97382 0.844661
      vertex 0 5.74266 1.8659
    endloop
  endfacet
  facet normal 0 0.669131 -0.743144
    outer loop
      vertex 0 5.74266 1.8659
      vertex 200 7.26052 3.23259
      vertex 200 5.74266 1.8659
    endloop
  endfacet
  facet normal 0 0.669131 -0.743144
    outer loop
      vertex 200 7.26052 3.23259
      vertex 0 5.74266 1.8659
      vertex 0 7.26052 3.23259
    endloop
  endfacet
  facet normal 0 0.809016 -0.587786
    outer loop
      vertex 200 7.26052 3.23259
      vertex 0 8.46107 4.885
      vertex 200 8.46107 4.885
    endloop
  endfacet
  facet normal 0 0.809016 -0.587786
    outer loop
      vertex 0 8.46107 4.885
      vertex 200 7.26052 3.23259
      vertex 0 7.26052 3.23259
    endloop
  endfacet
  facet normal 0 0.913546 -0.406736
    outer loop
      vertex 200 8.46107 4.885
      vertex 0 9.29182 6.7509
      vertex 200 9.29182 6.7509
    endloop
  endfacet
  facet normal 0 0.913546 -0.406736
    outer loop
      vertex 0 9.29182 6.7509
      vertex 200 8.46107 4.885
      vertex 0 8.46107 4.885
    endloop
  endfacet
  facet normal 0 0.978147 -0.207913
    outer loop
      vertex 200 9.29182 6.7509
      vertex 0 9.71648 8.74876
      vertex 200 9.71648 8.74876
    endloop
  endfacet
  facet normal 0 0.978147 -0.207913
    outer loop
      vertex 0 9.71648 8.74876
      vertex 200 9.29182 6.7509
      vertex 0 9.29182 6.7509
    endloop
  endfacet
  facet normal 0 1 -0
    outer loop
      vertex 200 9.71648 8.74876
      vertex 0 9.71648 10.7912
      vertex 200 9.71648 10.7912
    endloop
  endfacet
  facet normal 0 1 0
    outer loop
      vertex 0 9.71648 10.7912
      vertex 200 9.71648 8.74876
      vertex 0 9.71648 8.74876
    endloop
  endfacet
  facet normal 0 0.978148 0.207909
    outer loop
      vertex 200 9.71648 10.7912
      vertex 0 9.29182 12.7891
      vertex 200 9.29182 12.7891
    endloop
  endfacet
  facet normal 0 0.978148 0.207909
    outer loop
      vertex 0 9.29182 12.7891
      vertex 200 9.71648 10.7912
      vertex 0 9.71648 10.7912
    endloop
  endfacet
  facet normal 0 0.913546 0.406736
    outer loop
      vertex 200 9.29182 12.7891
      vertex 0 8.46107 14.655
      vertex 200 8.46107 14.655
    endloop
  endfacet
  facet normal 0 0.913546 0.406736
    outer loop
      vertex 0 8.46107 14.655
      vertex 200 9.29182 12.7891
      vertex 0 9.29182 12.7891
    endloop
  endfacet
  facet normal 0 0.809014 0.587789
    outer loop
      vertex 200 8.46107 14.655
      vertex 0 7.26052 16.3074
      vertex 200 7.26052 16.3074
    endloop
  endfacet
  facet normal 0 0.809014 0.587789
    outer loop
      vertex 0 7.26052 16.3074
      vertex 200 8.46107 14.655
      vertex 0 8.46107 14.655
    endloop
  endfacet
  facet normal -0 0.669134 0.743142
    outer loop
      vertex 0 7.26052 16.3074
      vertex 200 5.74266 17.6741
      vertex 200 7.26052 16.3074
    endloop
  endfacet
  facet normal 0 0.669134 0.743142
    outer loop
      vertex 200 5.74266 17.6741
      vertex 0 7.26052 16.3074
      vertex 0 5.74266 17.6741
    endloop
  endfacet
  facet normal -0 0.499985 0.866034
    outer loop
      vertex 0 5.74266 17.6741
      vertex 200 3.97382 18.6953
      vertex 200 5.74266 17.6741
    endloop
  endfacet
  facet normal 0 0.499985 0.866034
    outer loop
      vertex 200 3.97382 18.6953
      vertex 0 5.74266 17.6741
      vertex 0 3.97382 18.6953
    endloop
  endfacet
  facet normal -0 0.309033 0.951051
    outer loop
      vertex 0 3.97382 18.6953
      vertex 200 2.0313 19.3265
      vertex 200 3.97382 18.6953
    endloop
  endfacet
  facet normal 0 0.309033 0.951051
    outer loop
      vertex 200 2.0313 19.3265
      vertex 0 3.97382 18.6953
      vertex 0 2.0313 19.3265
    endloop
  endfacet
  facet normal -0 0.104529 0.994522
    outer loop
      vertex 0 2.0313 19.3265
      vertex 200 0 19.54
      vertex 200 2.0313 19.3265
    endloop
  endfacet
  facet normal 0 0.104529 0.994522
    outer loop
      vertex 200 0 19.54
      vertex 0 2.0313 19.3265
      vertex 0 0 19.54
    endloop
  endfacet
  facet normal 0 -0.104529 0.994522
    outer loop
      vertex 0 0 19.54
      vertex 200 -2.0313 19.3265
      vertex 200 0 19.54
    endloop
  endfacet
  facet normal 0 -0.104529 0.994522
    outer loop
      vertex 200 -2.0313 19.3265
      vertex 0 0 19.54
      vertex 0 -2.0313 19.3265
    endloop
  endfacet
  facet normal 0 -0.309033 0.951051
    outer loop
      vertex 0 -2.0313 19.3265
      vertex 200 -3.97382 18.6953
      vertex 200 -2.0313 19.3265
    endloop
  endfacet
  facet normal 0 -0.309033 0.951051
    outer loop
      vertex 200 -3.97382 18.6953
      vertex 0 -2.0313 19.3265
      vertex 0 -3.97382 18.6953
    endloop
  endfacet
  facet normal 0 -0.499985 0.866034
    outer loop
      vertex 0 -3.97382 18.6953
      vertex 200 -5.74266 17.6741
      vertex 200 -3.97382 18.6953
    endloop
  endfacet
  facet normal 0 -0.499985 0.866034
    outer loop
      vertex 200 -5.74266 17.6741
      vertex 0 -3.97382 18.6953
      vertex 0 -5.74266 17.6741
    endloop
  endfacet
  facet normal 0 -0.669134 0.743142
    outer loop
      vertex 0 -5.74266 17.6741
      vertex 200 -7.26052 16.3074
      vertex 200 -5.74266 17.6741
    endloop
  endfacet
  facet normal 0 -0.669134 0.743142
    outer loop
      vertex 200 -7.26052 16.3074
      vertex 0 -5.74266 17.6741
      vertex 0 -7.26052 16.3074
    endloop
  endfacet
  facet normal 0 -0.809014 0.587789
    outer loop
      vertex 0 -8.46107 14.655
      vertex 200 -7.26052 16.3074
      vertex 0 -7.26052 16.3074
    endloop
  endfacet
  facet normal 0 -0.809014 0.587789
    outer loop
      vertex 200 -7.26052 16.3074
      vertex 0 -8.46107 14.655
      vertex 200 -8.46107 14.655
    endloop
  endfacet
  facet normal 0 -0.913546 0.406736
    outer loop
      vertex 0 -9.29182 12.7891
      vertex 200 -8.46107 14.655
      vertex 0 -8.46107 14.655
    endloop
  endfacet
  facet normal 0 -0.913546 0.406736
    outer loop
      vertex 200 -8.46107 14.655
      vertex 0 -9.29182 12.7891
      vertex 200 -9.29182 12.7891
    endloop
  endfacet
  facet normal 0 -0.978148 0.207909
    outer loop
      vertex 0 -9.71648 10.7912
      vertex 200 -9.29182 12.7891
      vertex 0 -9.29182 12.7891
    endloop
  endfacet
  facet normal 0 -0.978148 0.207909
    outer loop
      vertex 200 -9.29182 12.7891
      vertex 0 -9.71648 10.7912
      vertex 200 -9.71648 10.7912
    endloop
  endfacet
  facet normal 0 -1 0
    outer loop
      vertex 0 -9.71648 8.74876
      vertex 200 -9.71648 10.7912
      vertex 0 -9.71648 10.7912
    endloop
  endfacet
  facet normal 0 -1 -0
    outer loop
      vertex 200 -9.71648 10.7912
      vertex 0 -9.71648 8.74876
      vertex 200 -9.71648 8.74876
    endloop
  endfacet
  facet normal 0 -0.978147 -0.207913
    outer loop
      vertex 0 -9.29182 6.7509
      vertex 200 -9.71648 8.74876
      vertex 0 -9.71648 8.74876
    endloop
  endfacet
  facet normal 0 -0.978147 -0.207913
    outer loop
      vertex 200 -9.71648 8.74876
      vertex 0 -9.29182 6.7509
      vertex 200 -9.29182 6.7509
    endloop
  endfacet
  facet normal 0 -0.913546 -0.406736
    outer loop
      vertex 0 -8.46107 4.885
      vertex 200 -9.29182 6.7509
      vertex 0 -9.29182 6.7509
    endloop
  endfacet
  facet normal 0 -0.913546 -0.406736
    outer loop
      vertex 200 -9.29182 6.7509
      vertex 0 -8.46107 4.885
      vertex 200 -8.46107 4.885
    endloop
  endfacet
  facet normal 0 -0.809016 -0.587786
    outer loop
      vertex 0 -7.26052 3.23259
      vertex 200 -8.46107 4.885
      vertex 0 -8.46107 4.885
    endloop
  endfacet
  facet normal 0 -0.809016 -0.587786
    outer loop
      vertex 200 -8.46107 4.885
      vertex 0 -7.26052 3.23259
      vertex 200 -7.26052 3.23259
    endloop
  endfacet
  facet normal 0 -0.669131 -0.743144
    outer loop
      vertex 0 -7.26052 3.23259
      vertex 200 -5.74266 1.8659
      vertex 200 -7.26052 3.23259
    endloop
  endfacet
  facet normal -0 -0.669131 -0.743144
    outer loop
      vertex 200 -5.74266 1.8659
      vertex 0 -7.26052 3.23259
      vertex 0 -5.74266 1.8659
    endloop
  endfacet
  facet normal 0 -0.5 -0.866026
    outer loop
      vertex 0 -5.74266 1.8659
      vertex 200 -3.97382 0.844661
      vertex 200 -5.74266 1.8659
    endloop
  endfacet
  facet normal -0 -0.5 -0.866026
    outer loop
      vertex 200 -3.97382 0.844661
      vertex 0 -5.74266 1.8659
      vertex 0 -3.97382 0.844661
    endloop
  endfacet
  facet normal 0 -0.309017 -0.951057
    outer loop
      vertex 0 -3.97382 0.844661
      vertex 200 -2.0313 0.213498
      vertex 200 -3.97382 0.844661
    endloop
  endfacet
  facet normal -0 -0.309017 -0.951057
    outer loop
      vertex 200 -2.0313 0.213498
      vertex 0 -3.97382 0.844661
      vertex 0 -2.0313 0.213498
    endloop
  endfacet
  facet normal 0 -0.104528 -0.994522
    outer loop
      vertex 0 -2.0313 0.213498
      vertex 200 0 0
      vertex 200 -2.0313 0.213498
    endloop
  endfacet
  facet normal -0 -0.104528 -0.994522
    outer loop
      vertex 200 0 0
      vertex 0 -2.0313 0.213498
      vertex 0 0 0
    endloop
  endfacet
  facet normal -1 0 0
    outer loop
      vertex 0 9.29182 6.7509
      vertex 0 9.71648 10.7912
      vertex 0 9.71648 8.74876
    endloop
  endfacet
  facet normal -1 0 0
    outer loop
      vertex 0 9.29182 6.7509
      vertex 0 9.29182 12.7891
      vertex 0 9.71648 10.7912
    endloop
  endfacet
  facet normal -1 0 0
    outer loop
      vertex 0 8.46107 4.885
      vertex 0 9.29182 12.7891
      vertex 0 9.29182 6.7509
    endloop
  endfacet
  facet normal -1 0 0
    outer loop
      vertex 0 8.46107 4.885
      vertex 0 8.46107 14.655
      vertex 0 9.29182 12.7891
    endloop
  endfacet
  facet normal -1 0 0
    outer loop
      vertex 0 7.26052 3.23259
      vertex 0 8.46107 14.655
      vertex 0 8.46107 4.885
    endloop
  endfacet
  facet normal -1 0 0
    outer loop
      vertex 0 7.26052 3.23259
      vertex 0 7.26052 16.3074
      vertex 0 8.46107 14.655
    endloop
  endfacet
  facet normal -1 0 0
    outer loop
      vertex 0 5.74266 1.8659
      vertex 0 7.26052 16.3074
      vertex 0 7.26052 3.23259
    endloop
  endfacet
  facet normal -1 0 0
    outer loop
      vertex 0 5.74266 1.8659
      vertex 0 5.74266 17.6741
      vertex 0 7.26052 16.3074
    endloop
  endfacet
  facet normal -1 0 0
    outer loop
      vertex 0 3.97382 0.844661
      vertex 0 5.74266 17.6741
      vertex 0 5.74266 1.8659
    endloop
  endfacet
  facet normal -1 0 0
    outer loop
      vertex 0 3.97382 0.844661
      vertex 0 3.97382 18.6953
      vertex 0 5.74266 17.6741
    endloop
  endfacet
  facet normal -1 0 0
    outer loop
      vertex 0 2.0313 0.213498
      vertex 0 3.97382 18.6953
      vertex 0 3.97382 0.844661
    endloop
  endfacet
  facet normal -1 0 0
    outer loop
      vertex 0 2.0313 0.213498
      vertex 0 2.0313 19.3265
      vertex 0 3.97382 18.6953
    endloop
  endfacet
  facet normal -1 0 0
    outer loop
      vertex 0 0 0
      vertex 0 2.0313 19.3265
      vertex 0 2.0313 0.213498
    endloop
  endfacet
  facet normal -1 0 0
    outer loop
      vertex 0 0 0
      vertex 0 0 19.54
      vertex 0 2.0313 19.3265
    endloop
  endfacet
  facet normal -1 0 0
    outer loop
      vertex 0 -2.0313 0.213498
      vertex 0 0 19.54
      vertex 0 0 0
    endloop
  endfacet
  facet normal -1 0 0
    outer loop
      vertex 0 -2.0313 0.213498
      vertex 0 -2.0313 19.3265
      vertex 0 0 19.54
    endloop
  endfacet
  facet normal -1 0 0
    outer loop
      vertex 0 -3.97382 0.844661
      vertex 0 -2.0313 19.3265
      vertex 0 -2.0313 0.213498
    endloop
  endfacet
  facet normal -1 0 0
    outer loop
      vertex 0 -3.97382 0.844661
      vertex 0 -3.97382 18.6953
      vertex 0 -2.0313 19.3265
    endloop
  endfacet
  facet normal -1 0 0
    outer loop
      vertex 0 -5.74266 1.8659
      vertex 0 -3.97382 18.6953
      vertex 0 -3.97382 0.844661
    endloop
  endfacet
  facet normal -1 0 0
    outer loop
      vertex 0 -5.74266 1.8659
      vertex 0 -5.74266 17.6741
      vertex 0 -3.97382 18.6953
    endloop
  endfacet
  facet normal -1 0 0
    outer loop
      vertex 0 -7.26052 3.23259
      vertex 0 -5.74266 17.6741
      vertex 0 -5.74266 1.8659
    endloop
  endfacet
  facet normal -1 0 0
    outer loop
      vertex 0 -7.26052 3.23259
      vertex 0 -7.26052 16.3074
      vertex 0 -5.74266 17.6741
    endloop
  endfacet
  facet normal -1 0 0
    outer loop
      vertex 0 -8.46107 4.885
      vertex 0 -7.26052 16.3074
      vertex 0 -7.26052 3.23259
    endloop
  endfacet
  facet normal -1 0 0
    outer loop
      vertex 0 -8.46107 4.885
      vertex 0 -8.46107 14.655
      vertex 0 -7.26052 16.3074
    endloop
  endfacet
  facet normal -1 0 0
    outer loop
      vertex 0 -9.29182 6.7509
      vertex 0 -8.46107 14.655
      vertex 0 -8.46107 4.885
    endloop
  endfacet
  facet normal -1 0 0
    outer loop
      vertex 0 -9.29182 6.7509
      vertex 0 -9.29182 12.7891
      vertex 0 -8.46107 14.655
    endloop
  endfacet
  facet normal -1 0 0
    outer loop
      vertex 0 -9.71648 8.74876
      vertex 0 -9.29182 12.7891
      vertex 0 -9.29182 6.7509
    endloop
  endfacet
  facet normal -1 0 0
    outer loop
      vertex 0 -9.29182 12.7891
      vertex 0 -9.71648 8.74876
      vertex 0 -9.71648 10.7912
    endloop
  endfacet
  facet normal 1 0 0
    outer loop
      vertex 200 9.29182 12.7891
      vertex 200 9.71648 8.74876
      vertex 200 9.71648 10.7912
    endloop
  endfacet
  facet normal 1 0 0
    outer loop
      vertex 200 9.29182 12.7891
      vertex 200 9.29182 6.7509
      vertex 200 9.71648 8.74876
    endloop
  endfacet
  facet normal 1 0 0
    outer loop
      vertex 200 8.46107 14.655
      vertex 200 9.29182 6.7509
      vertex 200 9.29182 12.7891
    endloop
  endfacet
  facet normal 1 0 0
    outer loop
      vertex 200 8.46107 14.655
      vertex 200 8.46107 4.885
      vertex 200 9.29182 6.7509
    endloop
  endfacet
  facet normal 1 0 0
    outer loop
      vertex 200 7.26052 16.3074
      vertex 200 8.46107 4.885
      vertex 200 8.46107 14.655
    endloop
  endfacet
  facet normal 1 0 0
    outer loop
      vertex 200 7.26052 16.3074
      vertex 200 7.26052 3.23259
      vertex 200 8.46107 4.885
    endloop
  endfacet
  facet normal 1 0 0
    outer loop
      vertex 200 5.74266 17.6741
      vertex 200 7.26052 3.23259
      vertex 200 7.26052 16.3074
    endloop
  endfacet
  facet normal 1 0 0
    outer loop
      vertex 200 5.74266 17.6741
      vertex 200 5.74266 1.8659
      vertex 200 7.26052 3.23259
    endloop
  endfacet
  facet normal 1 0 0
    outer loop
      vertex 200 3.97382 18.6953
      vertex 200 5.74266 1.8659
      vertex 200 5.74266 17.6741
    endloop
  endfacet
  facet normal 1 0 0
    outer loop
      vertex 200 3.97382 18.6953
      vertex 200 3.97382 0.844661
      vertex 200 5.74266 1.8659
    endloop
  endfacet
  facet normal 1 0 0
    outer loop
      vertex 200 2.0313 19.3265
      vertex 200 3.97382 0.844661
      vertex 200 3.97382 18.6953
    endloop
  endfacet
  facet normal 1 0 0
    outer loop
      vertex 200 2.0313 19.3265
      vertex 200 2.0313 0.213498
      vertex 200 3.97382 0.844661
    endloop
  endfacet
  facet normal 1 0 0
    outer loop
      vertex 200 0 19.54
      vertex 200 2.0313 0.213498
      vertex 200 2.0313 19.3265
    endloop
  endfacet
  facet normal 1 0 0
    outer loop
      vertex 200 0 19.54
      vertex 200 0 0
      vertex 200 2.0313 0.213498
    endloop
  endfacet
  facet normal 1 -0 0
    outer loop
      vertex 200 -2.0313 19.3265
      vertex 200 0 0
      vertex 200 0 19.54
    endloop
  endfacet
  facet normal 1 0 0
    outer loop
      vertex 200 -2.0313 19.3265
      vertex 200 -2.0313 0.213498
      vertex 200 0 0
    endloop
  endfacet
  facet normal 1 -0 0
    outer loop
      vertex 200 -3.97382 18.6953
      vertex 200 -2.0313 0.213498
      vertex 200 -2.0313 19.3265
    endloop
  endfacet
  facet normal 1 0 0
    outer loop
      vertex 200 -3.97382 18.6953
      vertex 200 -3.97382 0.844661
      vertex 200 -2.0313 0.213498
    endloop
  endfacet
  facet normal 1 -0 0
    outer loop
      vertex 200 -5.74266 17.6741
      vertex 200 -3.97382 0.844661
      vertex 200 -3.97382 18.6953
    endloop
  endfacet
  facet normal 1 0 0
    outer loop
      vertex 200 -5.74266 17.6741
      vertex 200 -5.74266 1.8659
      vertex 200 -3.97382 0.844661
    endloop
  endfacet
  facet normal 1 -0 0
    outer loop
      vertex 200 -7.26052 16.3074
      vertex 200 -5.74266 1.8659
      vertex 200 -5.74266 17.6741
    endloop
  endfacet
  facet normal 1 0 0
    outer loop
      vertex 200 -7.26052 16.3074
      vertex 200 -7.26052 3.23259
      vertex 200 -5.74266 1.8659
    endloop
  endfacet
  facet normal 1 -0 0
    outer loop
      vertex 200 -8.46107 14.655
      vertex 200 -7.26052 3.23259
      vertex 200 -7.26052 16.3074
    endloop
  endfacet
  facet normal 1 0 0
    outer loop
      vertex 200 -8.46107 14.655
      vertex 200 -8.46107 4.885
      vertex 200 -7.26052 3.23259
    endloop
  endfacet
  facet normal 1 -0 0
    outer loop
      vertex 200 -9.29182 12.7891
      vertex 200 -8.46107 4.885
      vertex 200 -8.46107 14.655
    endloop
  endfacet
  facet normal 1 0 0
    outer loop
      vertex 200 -9.29182 12.7891
      vertex 200 -9.29182 6.7509
      vertex 200 -8.46107 4.885
    endloop
  endfacet
  facet normal 1 -0 0
    outer loop
      vertex 200 -9.71648 10.7912
      vertex 200 -9.29182 6.7509
      vertex 200 -9.29182 12.7891
    endloop
  endfacet
  facet normal 1 0 0
    outer loop
      vertex 200 -9.29182 6.7509
      vertex 200 -9.71648 10.7912
      vertex 200 -9.71648 8.74876
    endloop
  endfacet
endsolid OpenSCAD_Model
